<?xml version="1.0" standalone="no"?>
<!DOCTYPE svg PUBLIC "-//W3C//DTD SVG 20010904//EN"
 "http://www.w3.org/TR/2001/REC-SVG-20010904/DTD/svg10.dtd">
<svg version="1.0" xmlns="http://www.w3.org/2000/svg"
 width="300.000000pt" height="171.000000pt" viewBox="0 0 300.000000 171.000000"
 preserveAspectRatio="xMidYMid meet">
<metadata>
Created by potrace 1.10, written by Peter Selinger 2001-2011
</metadata>
<g transform="translate(0.000000,171.000000) scale(0.100000,-0.100000)"
fill="#000000" stroke="none">
<path d="M1325 1532 c-38 -10 -92 -28 -118 -40 -57 -25 -170 -92 -165 -98 2
-2 33 6 68 18 79 26 263 31 350 9 77 -18 226 -92 282 -139 103 -86 180 -196
223 -319 16 -47 24 -60 24 -42 2 65 -94 241 -176 322 -86 86 -229 165 -349
193 -38 8 -114 15 -172 16 -121 0 -124 12 -14 47 256 80 538 8 715 -183 74
-80 148 -224 165 -321 11 -65 8 -237 -6 -285 -38 -129 -135 -279 -236 -362
-80 -66 -88 -75 -47 -52 48 28 157 129 192 180 88 128 123 243 122 399 0 90
-5 124 -25 187 -76 230 -232 385 -463 458 -99 31 -274 37 -370 12z"/>
<path d="M1360 1215 l0 -55 -55 0 -55 0 0 -70 0 -70 55 0 55 0 0 -55 0 -55 73
0 74 0 -5 55 -4 55 61 0 61 0 0 70 0 70 -61 0 -61 0 4 55 5 55 -74 0 -73 0 0
-55z m104 -17 c8 -42 32 -66 72 -74 52 -10 60 -64 10 -64 -35 0 -74 -36 -82
-75 -5 -30 -10 -35 -35 -35 -23 0 -29 5 -29 20 0 42 -28 77 -67 87 -30 7 -38
13 -38 32 0 18 9 26 38 36 45 16 66 40 67 78 0 23 4 27 29 27 24 0 29 -5 35
-32z"/>
<path d="M871 1229 c-5 -13 -18 -45 -29 -70 -38 -88 -55 -192 -50 -308 9 -191
74 -337 210 -473 90 -90 210 -156 334 -184 99 -22 249 -15 349 16 59 18 78 30
123 77 131 138 204 350 186 538 l-7 70 -18 -73 c-37 -150 -151 -308 -283 -394
-57 -37 -62 -38 -145 -38 -200 0 -378 85 -508 241 -60 73 -130 218 -148 307
-17 85 -19 211 -4 265 12 44 5 63 -10 26z m-26 -295 c8 -39 43 -131 73 -189
43 -85 103 -162 175 -223 82 -70 133 -99 240 -137 102 -36 98 -45 -23 -45
-197 0 -328 70 -396 211 -12 24 -29 60 -38 79 -34 72 -55 208 -47 314 1 23 10
17 16 -10z m1100 -344 c-41 -158 -166 -325 -256 -344 -13 -3 -44 -10 -69 -17
-25 -6 -90 -11 -145 -11 -111 0 -198 18 -279 59 -51 25 -166 94 -166 98 0 2
37 -9 83 -23 114 -34 285 -36 401 -3 44 12 86 19 94 16 7 -3 30 2 50 12 52 23
161 105 167 126 4 9 10 17 15 17 5 0 23 21 41 47 35 50 68 87 74 81 3 -2 -2
-28 -10 -58z"/>
<path d="M1137 974 c-4 -4 -7 -59 -7 -121 l0 -114 70 -74 c40 -42 70 -83 70
-94 0 -19 6 -21 53 -21 30 0 56 2 59 5 2 3 2 28 -2 55 -6 47 -13 58 -81 126
-40 40 -79 74 -87 74 -30 0 -22 -33 22 -86 42 -51 50 -74 25 -74 -5 0 -9 5 -9
11 0 6 -20 34 -45 61 -49 54 -53 68 -30 92 12 12 15 33 13 88 -3 65 -5 73 -23
76 -12 2 -24 0 -28 -4z m203 -354 c0 -13 -7 -20 -20 -20 -23 0 -35 22 -26 45
8 22 46 1 46 -25z"/>
<path d="M1682 968 c-18 -18 -16 -133 3 -148 25 -21 17 -48 -31 -108 -51 -63
-64 -72 -64 -47 0 9 21 38 46 65 45 48 53 80 21 80 -7 0 -50 -38 -95 -84 -79
-80 -82 -85 -82 -130 l0 -46 60 0 c57 0 60 1 60 24 0 14 5 28 10 31 6 3 37 38
70 76 l60 70 0 102 c0 100 -7 127 -35 127 -6 0 -16 -5 -23 -12z m-107 -318
c11 -18 -6 -50 -25 -50 -25 0 -33 15 -20 40 11 21 35 27 45 10z"/>
</g>
</svg>
