<?xml version="1.0" standalone="no"?>
<!DOCTYPE svg PUBLIC "-//W3C//DTD SVG 20010904//EN"
 "http://www.w3.org/TR/2001/REC-SVG-20010904/DTD/svg10.dtd">
<svg version="1.0" xmlns="http://www.w3.org/2000/svg"
 width="300.000000pt" height="139.000000pt" viewBox="0 0 300.000000 139.000000"
 preserveAspectRatio="xMidYMid meet">
<metadata>
Created by potrace 1.10, written by Peter Selinger 2001-2011
</metadata>
<g transform="translate(0.000000,139.000000) scale(0.100000,-0.100000)"
fill="#000000" stroke="none">
<path d="M500 1377 c-39 -14 -80 -67 -80 -104 0 -49 31 -95 77 -115 54 -24 92
-17 133 23 94 94 -3 240 -130 196z m105 -41 c50 -50 40 -125 -21 -153 -62 -30
-134 15 -134 82 0 80 100 126 155 71z"/>
<path d="M165 1254 c-49 -11 -155 -47 -155 -53 0 -3 4 -12 9 -19 7 -11 19 -10
66 3 110 32 194 1 260 -97 19 -29 35 -55 35 -59 0 -3 -11 -11 -24 -17 -16 -7
-29 -25 -37 -50 -15 -51 7 -99 60 -136 l38 -27 5 -127 c3 -70 4 -145 2 -167
-1 -22 -3 -49 -3 -60 -1 -19 -8 -20 -208 -20 l-208 0 -3 -28 -3 -27 210 0 210
0 -14 -41 c-27 -75 -50 -101 -145 -165 -52 -35 -108 -75 -123 -89 -27 -24 -28
-27 -13 -49 l15 -24 36 34 c70 66 208 85 365 50 96 -20 229 -20 295 2 54 18
71 49 25 45 -168 -16 -174 -16 -209 8 -46 32 -70 83 -78 163 l-6 66 934 0 934
0 49 -42 49 -42 231 3 c127 1 232 4 233 5 2 1 -41 33 -95 69 l-99 68 -1117 -3
-1117 -3 5 80 c3 44 8 124 12 178 3 53 9 97 13 97 4 0 33 24 64 53 52 48 57
57 57 95 0 23 -5 51 -12 61 -10 17 -4 28 50 86 34 38 62 74 62 81 0 26 -19 23
-39 -5 -53 -74 -145 -92 -229 -45 -26 15 -77 44 -113 66 -101 59 -218 94 -274
82z m240 -96 c49 -24 92 -47 94 -52 7 -17 107 -56 144 -56 20 0 37 -2 37 -4 0
-2 3 -12 7 -21 5 -14 2 -16 -15 -11 -20 7 -20 7 -1 -31 10 -20 19 -46 19 -57
0 -10 -28 -47 -62 -81 -35 -34 -71 -74 -81 -88 -10 -15 -24 -27 -32 -27 -7 0
-29 21 -49 48 -19 26 -53 64 -75 85 -59 54 -54 107 12 147 29 18 30 20 10 20
-17 0 -23 6 -23 21 0 30 -17 58 -63 107 -24 24 -35 42 -27 42 8 0 55 -19 105
-42z m82 -420 l33 -32 23 22 c33 31 39 27 23 -15 -18 -47 -30 -269 -16 -278
13 -8 13 -48 -1 -79 -20 -42 -2 -129 37 -187 19 -29 32 -54 29 -57 -3 -3 -38
1 -77 8 -40 8 -116 14 -168 13 l-94 -1 29 21 c83 59 130 135 127 207 0 25 5
59 13 76 11 23 14 65 12 165 -2 74 -7 142 -11 152 -12 26 5 20 41 -15z m2350
-370 c18 -13 31 -27 30 -33 -2 -6 -66 -11 -157 -13 -150 -2 -155 -2 -192 23
-21 14 -38 30 -38 35 0 6 62 10 162 10 151 0 164 -1 195 -22z"/>
<path d="M573 1014 c-18 -9 -33 -21 -33 -26 0 -6 7 -5 15 2 8 7 32 18 52 26
22 7 30 13 18 13 -11 0 -35 -7 -52 -15z"/>
<path d="M870 1038 c0 -5 8 -8 18 -8 10 0 28 -7 40 -16 22 -15 22 -19 22 -239
0 -243 -3 -255 -56 -255 -13 0 -24 -3 -24 -8 0 -4 54 -7 120 -7 66 0 120 3
120 7 0 5 -10 8 -23 8 -13 0 -31 6 -41 13 -16 12 -18 35 -19 241 -2 215 -1
228 17 242 11 8 30 14 43 14 13 0 23 3 23 8 0 4 -54 7 -120 7 -66 0 -120 -3
-120 -7z"/>
<path d="M1295 905 c-109 -38 -166 -182 -116 -290 35 -76 95 -115 177 -115 61
0 104 20 142 66 41 49 31 60 -11 12 -40 -45 -65 -58 -115 -58 -88 0 -142 71
-142 185 1 125 47 188 139 189 59 1 98 -23 120 -75 9 -21 19 -39 22 -39 7 0
-1 131 -7 139 -3 3 -10 -3 -17 -13 -11 -16 -15 -16 -49 -1 -46 18 -90 19 -143
0z"/>
<path d="M1715 908 c-83 -29 -135 -105 -135 -199 0 -218 273 -290 371 -98 26
51 26 147 0 197 -47 91 -144 132 -236 100z m130 -32 c12 -8 30 -32 41 -53 25
-51 26 -184 1 -230 -36 -68 -103 -91 -168 -57 -97 50 -94 298 4 348 36 18 87
15 122 -8z"/>
<path d="M2000 902 c0 -4 10 -8 21 -9 12 -1 30 -10 40 -19 17 -15 19 -33 19
-174 0 -161 -4 -180 -42 -180 -10 0 -18 -4 -18 -8 0 -5 34 -9 75 -9 73 0 104
12 48 19 l-28 3 -5 145 c-3 80 -4 147 -2 150 2 3 10 -4 18 -15 39 -54 247
-305 253 -305 3 0 6 86 6 190 0 159 3 192 15 200 8 5 20 8 27 5 7 -2 15 0 18
5 4 6 -24 10 -69 10 -49 0 -76 -4 -76 -11 0 -6 6 -9 14 -6 8 3 21 0 30 -6 14
-10 16 -32 14 -146 l-3 -134 -120 151 -120 151 -57 0 c-32 1 -58 -3 -58 -7z"/>
<path d="M968 287 c3 -36 0 -62 -8 -72 -11 -13 -7 -15 23 -15 36 0 36 0 22 27
-17 33 -12 43 26 43 24 0 29 -4 29 -25 0 -14 -4 -25 -10 -25 -5 0 -10 -4 -10
-10 0 -5 14 -10 32 -10 25 0 29 3 20 12 -14 14 -16 118 -2 118 6 0 10 3 10 8
0 4 -13 7 -30 7 -16 0 -30 -3 -30 -7 0 -5 5 -8 10 -8 6 0 10 -12 10 -26 0 -23
-3 -25 -32 -22 -33 3 -35 7 -24 43 5 16 1 20 -17 20 -22 0 -23 -3 -19 -58z"/>
<path d="M1320 348 c-1 -1 -2 -36 -3 -76 -2 -70 -1 -72 22 -72 19 0 21 2 11
15 -7 9 -11 36 -8 71 2 39 -1 58 -9 61 -7 3 -13 3 -13 1z"/>
<path d="M1440 348 c-1 -2 -2 -36 -3 -76 -2 -61 0 -72 15 -72 13 0 15 7 11 39
-4 29 -1 39 11 44 21 8 30 -14 22 -53 -4 -25 -2 -30 14 -30 16 0 18 5 14 38
-9 60 -12 65 -39 60 -22 -5 -25 -2 -25 23 0 16 -4 29 -10 29 -5 0 -10 -1 -10
-2z"/>
<path d="M1615 329 l-20 -21 35 -29 c19 -16 38 -29 42 -29 4 0 8 -6 8 -14 0
-23 -29 -27 -50 -6 -26 26 -30 25 -30 -3 0 -20 5 -24 37 -25 73 -3 86 44 23
83 -23 14 -38 30 -35 35 10 15 45 12 51 -5 6 -15 24 -21 24 -7 0 16 -16 31
-41 37 -18 4 -30 0 -44 -16z"/>
<path d="M1385 313 c-16 -28 -3 -107 18 -111 9 -2 17 1 17 7 0 6 -4 11 -10 11
-5 0 -10 16 -10 35 0 21 5 35 13 35 9 0 8 3 -2 9 -7 5 -10 14 -7 20 4 6 3 11
-1 11 -5 0 -13 -8 -18 -17z"/>
<path d="M1131 291 c-25 -25 -26 -39 -5 -69 18 -26 37 -28 59 -6 20 20 11 32
-10 14 -12 -10 -18 -10 -30 0 -24 20 -17 30 21 30 39 0 42 14 7 37 -19 13 -24
12 -42 -6z"/>
<path d="M1234 295 c-10 -7 -15 -17 -11 -21 4 -5 12 -2 17 6 7 12 12 12 21 3
10 -10 7 -14 -13 -22 -33 -12 -43 -28 -29 -45 12 -14 64 -17 69 -3 1 4 2 23 2
42 0 42 -27 62 -56 40z"/>
<path d="M1740 290 c-25 -25 -25 -52 -2 -73 24 -22 35 -21 57 3 19 21 8 29
-13 8 -8 -8 -15 -8 -27 2 -24 20 -18 30 20 30 32 0 35 2 26 19 -16 29 -39 33
-61 11z"/>
<path d="M2080 290 c-24 -24 -25 -38 -4 -68 18 -26 37 -28 59 -6 20 21 11 32
-11 13 -14 -11 -18 -11 -30 5 -9 13 -10 24 -3 37 10 20 29 26 29 9 0 -5 7 -10
17 -10 14 0 14 2 -2 20 -10 11 -22 20 -27 20 -4 0 -17 -9 -28 -20z"/>
<path d="M2180 290 c-25 -25 -26 -52 -2 -73 24 -22 35 -21 57 3 19 21 8 29
-13 8 -8 -8 -15 -8 -27 2 -23 19 -18 30 15 30 35 0 41 23 10 40 -15 8 -24 6
-40 -10z"/>
<path d="M2272 298 c-19 -19 -14 -34 14 -53 20 -13 23 -20 14 -28 -9 -9 -15
-7 -26 7 -14 19 -14 19 -14 -2 0 -27 40 -31 61 -6 12 14 9 20 -16 40 -16 13
-26 26 -22 30 3 4 13 1 22 -6 12 -10 15 -10 15 3 0 8 -7 18 -16 21 -20 8 -18
8 -32 -6z"/>
<path d="M1825 249 c0 -39 3 -49 17 -49 13 0 15 7 11 40 -4 25 -2 40 5 40 6 0
17 3 25 6 10 4 20 -9 33 -40 11 -25 21 -46 24 -46 3 0 15 23 27 50 16 37 18
50 9 50 -8 0 -16 -14 -20 -32 -7 -35 -26 -28 -29 10 -1 19 -7 22 -52 21 l-50
-2 0 -48z"/>
<path d="M2005 290 c-3 -5 -1 -10 4 -10 15 0 14 -53 -1 -68 -9 -9 -7 -12 13
-12 23 0 24 3 21 50 -3 33 -8 50 -17 50 -8 0 -17 -4 -20 -10z"/>
</g>
</svg>
